<svg width="60" height="60" viewBox="0 0 60 60" fill="none" xmlns="http://www.w3.org/2000/svg">
<rect width="60" height="60" fill="#FF153C"/>
<path d="M35.7829 49H24.5426L22.6047 33.2629L17.1783 49H4L18.3411 11H30.3566H30.7442L33.0698 28.6569L40.8217 11H43.1473H54V49H43.1473V32.4952L35.7829 49Z" fill="black"/>
<path d="M18.3411 11H30.7442M18.3411 11H30.3566M18.3411 11L4 49H17.1783L22.6047 33.2629M18.3411 11L22.6047 33.2629M54 11V49H43.1473V32.4952M54 11H43.1473M54 11L43.1473 32.4952M30.7442 11L33.0698 28.6569L40.8217 11H43.1473M30.7442 11H30.3566M30.3566 11L22.6047 33.2629M43.1473 11V32.4952M22.6047 33.2629L24.5426 49H35.7829L43.1473 32.4952" stroke="black"/>
<path d="M13.5 60L22.5 35.5L25.5 60H13.5Z" fill="#D9D9D9" fill-opacity="0.56"/>
<path d="M31 60L42.6828 35V60H31Z" fill="#D9D9D9" fill-opacity="0.56"/>
</svg>
