<svg width="289" height="55" viewBox="0 0 289 55" fill="none" xmlns="http://www.w3.org/2000/svg">
<path d="M171 51.9996V2.99963H188.5V51.9996H171Z" fill="#FF153C"/>
<path d="M195.5 51.9996V2.99963H211L224 24.4996V2.99963H239.5V51.9996H224L211 29.4996V51.9996H195.5Z" fill="#FF153C"/>
<path d="M274.5 19.9996L287.5 11.5C285.5 6.5 276.5 0.999634 268 0.999634C251.2 0.999634 246.667 11.333 246.5 16.4996V41.4996C246.5 45.9996 252 54.4996 268 54.4996C284 54.4996 288 45.833 288 41.4996V25.4996H274.5V34.4996C274.5 36.833 273.2 41.4996 268 41.4996C262.8 41.4996 261 36.9996 261 34.4996V19.9996C261 17.9996 263.6 15.4996 268 15.4996C272.4 15.4996 274.167 18.4996 274.5 19.9996Z" fill="#FF153C"/>
<path d="M120.5 52.4999V2.9999H136.5V40L149.5 2.9999H166.5L149.5 52.4999H120.5Z" fill="#FF153C"/>
<path d="M42 51.9996H27.5L25 31.5L18 51.9996H1L19.5 2.49963H35H35.5L38.5 25.5L48.5 2.49963H51.5H65.5V51.9996H51.5V30.5L42 51.9996Z" fill="#FF153C"/>
<path fill-rule="evenodd" clip-rule="evenodd" d="M112.5 25.5V41.5C112.5 47.5002 108.5 54.5 92.5 54.5C76.5 54.5 72 47.0002 72 41.5V16.5C72 10.0002 75.5665 1.30538 91.7606 1.00677C108.5 1.00677 112.5 10.0002 112.5 16.5V25.5ZM85.5 34.5V20C85.6667 17.6668 87.3 13.0002 92.5 13.0002C97.7 13.0002 99 17.6668 99 20V34.5C99 36.8333 97.7 41.5 92.5 41.5C87.3 41.5 85.5 37 85.5 34.5Z" fill="#FF153C"/>
<path d="M19.5 2.49963H35.5M19.5 2.49963H35M19.5 2.49963L1 51.9996H18L25 31.5M19.5 2.49963L25 31.5M65.5 2.49963V51.9996H51.5V30.5M65.5 2.49963H51.5M65.5 2.49963L51.5 30.5M35.5 2.49963L38.5 25.5L48.5 2.49963H51.5M35.5 2.49963H35M35 2.49963L25 31.5M51.5 2.49963V30.5M112.5 25.5V41.5C112.5 47.5002 108.5 54.5 92.5 54.5C76.5 54.5 72 47.0002 72 41.5V16.5C72 10.0002 75.5665 1.30538 91.7606 1.00677M112.5 25.5C112.5 26.6668 112.5 26.5002 112.5 16.5M112.5 25.5V16.5M91.7606 1.00677C92.0044 1.00227 91.5114 1.00677 91.7606 1.00677ZM91.7606 1.00677C108.5 1.00677 112.5 10.0002 112.5 16.5M25 31.5L27.5 51.9996H42L51.5 30.5M171 2.99963V51.9996H188.5V2.99963H171ZM195.5 2.99963V51.9996H211V29.4996L224 51.9996H239.5V2.99963H224V24.4996L211 2.99963H195.5ZM287.5 11.5L274.5 19.9996C274.167 18.4996 272.4 15.4996 268 15.4996C263.6 15.4996 261 17.9996 261 19.9996V34.4996C261 36.9996 262.8 41.4996 268 41.4996C273.2 41.4996 274.5 36.833 274.5 34.4996V25.4996H288V41.4996C288 45.833 284 54.4996 268 54.4996C252 54.4996 246.5 45.9996 246.5 41.4996V16.4996C246.667 11.333 251.2 0.999634 268 0.999634C276.5 0.999634 285.5 6.5 287.5 11.5ZM120.5 2.9999V52.4999H149.5L166.5 2.9999H149.5L136.5 40V2.9999H120.5ZM85.5 20V34.5C85.5 37 87.3 41.5 92.5 41.5C97.7 41.5 99 36.8333 99 34.5V20C99 17.6668 97.7 13.0002 92.5 13.0002C87.3 13.0002 85.6667 17.6668 85.5 20Z" stroke="#FF153C"/>
</svg>
