<svg width="217" height="55" viewBox="0 0 217 55" fill="none" xmlns="http://www.w3.org/2000/svg">
<path d="M42 2.5H1V16H13.5V51.5H29V16H42V2.5Z" fill="#FF153C"/>
<path d="M64 30.5L48 2.5H63L71.5 16.5L79.5 2.5H95.5L70.5 51.5H52.5L64 30.5Z" fill="#FF153C"/>
<path d="M99 51.5V2.5H116.5V51.5H99Z" fill="#FF153C"/>
<path d="M123.5 51.5V2.5H139L152 24V2.5H167.5V51.5H152L139 29V51.5H123.5Z" fill="#FF153C"/>
<path d="M202.5 19.5L216 10.5C214 5.5 204.5 0.5 196 0.5C179.2 0.5 174.667 10.8333 174.5 16V41C174.5 45.5 180 54 196 54C212 54 216 45.3333 216 41V25H202.5V34C202.5 36.3333 201.2 41 196 41C190.8 41 189 36.5 189 34V19.5C189 17.5 191.6 15 196 15C200.4 15 202.167 18 202.5 19.5Z" fill="#FF153C"/>
<path d="M42 2.5H1V16H13.5V51.5H29V16H42V2.5Z" stroke="#FF153C"/>
<path d="M64 30.5L48 2.5H63L71.5 16.5L79.5 2.5H95.5L70.5 51.5H52.5L64 30.5Z" stroke="#FF153C"/>
<path d="M99 51.5V2.5H116.5V51.5H99Z" stroke="#FF153C"/>
<path d="M123.5 51.5V2.5H139L152 24V2.5H167.5V51.5H152L139 29V51.5H123.5Z" stroke="#FF153C"/>
<path d="M202.5 19.5L216 10.5C214 5.5 204.5 0.5 196 0.5C179.2 0.5 174.667 10.8333 174.5 16V41C174.5 45.5 180 54 196 54C212 54 216 45.3333 216 41V25H202.5V34C202.5 36.3333 201.2 41 196 41C190.8 41 189 36.5 189 34V19.5C189 17.5 191.6 15 196 15C200.4 15 202.167 18 202.5 19.5Z" stroke="#FF153C"/>
</svg>
